<svg id="visual" viewBox="0 0 960 540" width="960" height="540" xmlns="http://www.w3.org/2000/svg" xmlns:xlink="http://www.w3.org/1999/xlink" version="1.1"><rect x="0" y="0" width="960" height="540" fill="#ffffff"></rect><defs><linearGradient id="grad1_0" x1="43.8%" y1="0%" x2="100%" y2="100%"><stop offset="14.444444444444446%" stop-color="#ffffff" stop-opacity="1"></stop><stop offset="85.55555555555554%" stop-color="#ffffff" stop-opacity="1"></stop></linearGradient></defs><defs><linearGradient id="grad2_0" x1="0%" y1="0%" x2="56.3%" y2="100%"><stop offset="14.444444444444446%" stop-color="#ffffff" stop-opacity="1"></stop><stop offset="85.55555555555554%" stop-color="#ffffff" stop-opacity="1"></stop></linearGradient></defs><g transform="translate(960, 0)"><path d="M0 162C-31.3 159.5 -62.7 157 -81 140.3C-99.3 123.6 -104.7 92.7 -116 67C-127.4 41.3 -144.7 20.6 -162 0L0 0Z" fill="#006EFF"></path></g><g transform="translate(0, 540)"><path d="M0 -162C24.1 -150.7 48.2 -139.4 73.5 -127.3C98.8 -115.2 125.3 -102.3 140.3 -81C155.2 -59.7 158.6 -29.8 162 0L0 0Z" fill="#006EFF"></path></g></svg>