<svg id="visual" viewBox="0 0 900 450" width="900" height="450" xmlns="http://www.w3.org/2000/svg" xmlns:xlink="http://www.w3.org/1999/xlink" version="1.1"><rect x="0" y="0" width="900" height="450" fill="#ffffff"></rect><path d="M0 390L21.5 393.7C43 397.3 86 404.7 128.8 407.5C171.7 410.3 214.3 408.7 257.2 404.2C300 399.7 343 392.3 385.8 393.8C428.7 395.3 471.3 405.7 514.2 406.2C557 406.7 600 397.3 642.8 394.3C685.7 391.3 728.3 394.7 771.2 395.2C814 395.7 857 393.3 878.5 392.2L900 391L900 451L878.5 451C857 451 814 451 771.2 451C728.3 451 685.7 451 642.8 451C600 451 557 451 514.2 451C471.3 451 428.7 451 385.8 451C343 451 300 451 257.2 451C214.3 451 171.7 451 128.8 451C86 451 43 451 21.5 451L0 451Z" fill="#ff0000" stroke-linecap="round" stroke-linejoin="miter"></path></svg>